<svg width="46" height="46" viewBox="0 0 46 46" fill="none" xmlns="http://www.w3.org/2000/svg">
<g id="mdi:cog">
<path id="Vector" d="M23 29.7083C21.2208 29.7083 19.5145 29.0015 18.2565 27.7435C16.9984 26.4854 16.2917 24.7791 16.2917 23C16.2917 21.2208 16.9984 19.5145 18.2565 18.2565C19.5145 16.9984 21.2208 16.2916 23 16.2916C24.7792 16.2916 26.4855 16.9984 27.7435 18.2565C29.0016 19.5145 29.7083 21.2208 29.7083 23C29.7083 24.7791 29.0016 26.4854 27.7435 27.7435C26.4855 29.0015 24.7792 29.7083 23 29.7083ZM37.2408 24.8591C37.3175 24.2458 37.375 23.6325 37.375 23C37.375 22.3675 37.3175 21.735 37.2408 21.0833L41.285 17.9591C41.6492 17.6716 41.745 17.1541 41.515 16.7325L37.6817 10.1008C37.4517 9.67915 36.9342 9.50665 36.5125 9.67915L31.74 11.5958C30.7433 10.8483 29.7083 10.1967 28.5008 9.71748L27.7917 4.63832C27.7527 4.41257 27.6351 4.20788 27.4597 4.06054C27.2843 3.9132 27.0624 3.8327 26.8333 3.83332H19.1667C18.6875 3.83332 18.285 4.17832 18.2083 4.63832L17.4992 9.71748C16.2917 10.1967 15.2567 10.8483 14.26 11.5958L9.4875 9.67915C9.06583 9.50665 8.54833 9.67915 8.31833 10.1008L4.485 16.7325C4.23583 17.1541 4.35083 17.6716 4.715 17.9591L8.75916 21.0833C8.6825 21.735 8.625 22.3675 8.625 23C8.625 23.6325 8.6825 24.2458 8.75916 24.8591L4.715 28.0408C4.35083 28.3283 4.23583 28.8458 4.485 29.2675L8.31833 35.8991C8.54833 36.3208 9.06583 36.4742 9.4875 36.3208L14.26 34.385C15.2567 35.1516 16.2917 35.8033 17.4992 36.2825L18.2083 41.3616C18.285 41.8216 18.6875 42.1666 19.1667 42.1666H26.8333C27.3125 42.1666 27.715 41.8216 27.7917 41.3616L28.5008 36.2825C29.7083 35.7841 30.7433 35.1516 31.74 34.385L36.5125 36.3208C36.9342 36.4742 37.4517 36.3208 37.6817 35.8991L41.515 29.2675C41.745 28.8458 41.6492 28.3283 41.285 28.0408L37.2408 24.8591Z" fill="white"/>
</g>
</svg>
