<svg width="95" height="19" viewBox="0 0 95 19" fill="none" xmlns="http://www.w3.org/2000/svg">
<g id="Group 310">
<path id="Star 1" d="M9.02447 1.46352C9.17415 1.00287 9.82585 1.00287 9.97553 1.46353L11.5206 6.21885C11.5876 6.42486 11.7795 6.56434 11.9962 6.56434H16.9962C17.4806 6.56434 17.6819 7.18415 17.2901 7.46885L13.245 10.4078C13.0697 10.5351 12.9964 10.7608 13.0633 10.9668L14.6084 15.7221C14.7581 16.1828 14.2309 16.5659 13.839 16.2812L9.79389 13.3422C9.61865 13.2149 9.38135 13.2149 9.20611 13.3422L5.16099 16.2812C4.76913 16.5659 4.24189 16.1828 4.39157 15.7221L5.93667 10.9668C6.0036 10.7608 5.93027 10.5351 5.75503 10.4078L1.70991 7.46885C1.31805 7.18415 1.51944 6.56434 2.0038 6.56434H7.00385C7.22046 6.56434 7.41244 6.42486 7.47937 6.21885L9.02447 1.46352Z" fill="#FFC700"/>
<path id="Star 2" d="M28.0245 1.46352C28.1741 1.00287 28.8259 1.00287 28.9755 1.46353L30.5206 6.21885C30.5876 6.42486 30.7795 6.56434 30.9962 6.56434H35.9962C36.4806 6.56434 36.6819 7.18415 36.2901 7.46885L32.245 10.4078C32.0697 10.5351 31.9964 10.7608 32.0633 10.9668L33.6084 15.7221C33.7581 16.1828 33.2309 16.5659 32.839 16.2812L28.7939 13.3422C28.6186 13.2149 28.3814 13.2149 28.2061 13.3422L24.161 16.2812C23.7691 16.5659 23.2419 16.1828 23.3916 15.7221L24.9367 10.9668C25.0036 10.7608 24.9303 10.5351 24.755 10.4078L20.7099 7.46885C20.3181 7.18415 20.5194 6.56434 21.0038 6.56434H26.0038C26.2205 6.56434 26.4124 6.42486 26.4794 6.21885L28.0245 1.46352Z" fill="#FFC700"/>
<path id="Star 3" d="M47.0245 1.46352C47.1741 1.00287 47.8259 1.00287 47.9755 1.46353L49.5206 6.21885C49.5876 6.42486 49.7795 6.56434 49.9962 6.56434H54.9962C55.4806 6.56434 55.6819 7.18415 55.2901 7.46885L51.245 10.4078C51.0697 10.5351 50.9964 10.7608 51.0633 10.9668L52.6084 15.7221C52.7581 16.1828 52.2309 16.5659 51.839 16.2812L47.7939 13.3422C47.6186 13.2149 47.3814 13.2149 47.2061 13.3422L43.161 16.2812C42.7691 16.5659 42.2419 16.1828 42.3916 15.7221L43.9367 10.9668C44.0036 10.7608 43.9303 10.5351 43.755 10.4078L39.7099 7.46885C39.3181 7.18415 39.5194 6.56434 40.0038 6.56434H45.0038C45.2205 6.56434 45.4124 6.42486 45.4794 6.21885L47.0245 1.46352Z" fill="#FFC700"/>
<path id="Star 4" d="M66.0245 1.46352C66.1741 1.00287 66.8259 1.00287 66.9755 1.46353L68.5206 6.21885C68.5876 6.42486 68.7795 6.56434 68.9962 6.56434H73.9962C74.4806 6.56434 74.6819 7.18415 74.2901 7.46885L70.245 10.4078C70.0697 10.5351 69.9964 10.7608 70.0633 10.9668L71.6084 15.7221C71.7581 16.1828 71.2309 16.5659 70.839 16.2812L66.7939 13.3422C66.6186 13.2149 66.3814 13.2149 66.2061 13.3422L62.161 16.2812C61.7691 16.5659 61.2419 16.1828 61.3916 15.7221L62.9367 10.9668C63.0036 10.7608 62.9303 10.5351 62.755 10.4078L58.7099 7.46885C58.3181 7.18415 58.5194 6.56434 59.0038 6.56434H64.0038C64.2205 6.56434 64.4124 6.42486 64.4794 6.21885L66.0245 1.46352Z" fill="#FFC700"/>
<path id="Star 5" d="M85.0245 1.46352C85.1741 1.00287 85.8259 1.00287 85.9755 1.46353L87.5206 6.21885C87.5876 6.42486 87.7795 6.56434 87.9962 6.56434H92.9962C93.4806 6.56434 93.6819 7.18415 93.2901 7.46885L89.245 10.4078C89.0697 10.5351 88.9964 10.7608 89.0633 10.9668L90.6084 15.7221C90.7581 16.1828 90.2309 16.5659 89.839 16.2812L85.7939 13.3422C85.6186 13.2149 85.3814 13.2149 85.2061 13.3422L81.161 16.2812C80.7691 16.5659 80.2419 16.1828 80.3916 15.7221L81.9367 10.9668C82.0036 10.7608 81.9303 10.5351 81.755 10.4078L77.7099 7.46885C77.3181 7.18415 77.5194 6.56434 78.0038 6.56434H83.0038C83.2205 6.56434 83.4124 6.42486 83.4794 6.21885L85.0245 1.46352Z" fill="#FFC700"/>
</g>
</svg>
